<svg xmlns="http://www.w3.org/2000/svg" viewBox="0 0 24 24" width="24" height="24">
  <defs>
    <linearGradient id="implementationGradient" x1="0%" y1="0%" x2="100%" y2="100%">
      <stop offset="0%" style="stop-color:#2e7d32;stop-opacity:1" />
      <stop offset="100%" style="stop-color:#1b5e20;stop-opacity:1" />
    </linearGradient>
  </defs>

  <!-- Wrench -->
  <path d="M18 14 L22 10 L18 6 L16 8 L12 4 L10 6 L14 10 L10 14 L12 16 L16 12 L20 16 Z" fill="url(#implementationGradient)" />
  <!-- Gear -->
  <path d="M8 12 L9 12 L9 13 L8 13 Z M10 12 L11 12 L11 13 L10 13 Z M12 12 L13 12 L13 13 L12 13 Z M14 12 L15 12 L15 13 L14 13 Z M12 10 L13 10 L13 11 L12 11 Z M12 14 L13 14 L13 15 L12 15 Z" fill="url(#implementationGradient)" />
  <circle cx="12" cy="12" r="8" fill="none" stroke="url(#implementationGradient)" stroke-width="1.5" />
</svg>