<svg xmlns="http://www.w3.org/2000/svg" viewBox="0 0 200 60">
  <defs>
    <linearGradient id="logoGradient" x1="0%" y1="0%" x2="100%" y2="100%">
      <stop offset="0%" style="stop-color:#0d47a1;stop-opacity:1" />
      <stop offset="100%" style="stop-color:#1a237e;stop-opacity:1" />
    </linearGradient>
  </defs>

  <!-- Book shape -->
  <rect x="10" y="10" width="100" height="40" rx="6" fill="url(#logoGradient)" />
  <rect x="15" y="15" width="90" height="30" rx="4" fill="#ffffff" opacity="0.9" />

  <!-- AI Chip/Brain pattern -->
  <g transform="translate(25, 22)">
    <!-- Chip outline -->
    <rect x="0" y="0" width="20" height="16" rx="2" fill="#0d47a1" />
    <!-- Circuit paths -->
    <path d="M 2 4 H 8 V 8 H 12 V 12 H 18" stroke="#ffffff" stroke-width="1" fill="none" />
    <path d="M 2 12 H 6 V 8 H 10 V 4 H 18" stroke="#ffffff" stroke-width="1" fill="none" />
  </g>

  <!-- Neural network dots -->
  <g transform="translate(55, 22)">
    <circle cx="0" cy="0" r="2" fill="#0d47a1" />
    <circle cx="8" cy="0" r="2" fill="#0d47a1" />
    <circle cx="4" cy="6" r="2" fill="#0d47a1" />
    <circle cx="12" cy="6" r="2" fill="#0d47a1" />
    <line x1="0" y1="0" x2="4" y2="6" stroke="#0d47a1" stroke-width="1" />
    <line x1="8" y1="0" x2="4" y2="6" stroke="#0d47a1" stroke-width="1" />
    <line x1="8" y1="0" x2="12" y2="6" stroke="#0d47a1" stroke-width="1" />
    <line x1="0" y1="0" x2="8" y2="0" stroke="#0d47a1" stroke-width="1" />
    <line x1="4" y1="6" x2="12" y2="6" stroke="#0d47a1" stroke-width="1" />
  </g>

  <!-- Text -->
  <text x="120" y="35" font-family="Arial, sans-serif" font-size="18" font-weight="bold" fill="#0d47a1">Physical AI</text>
  <text x="120" y="50" font-family="Arial, sans-serif" font-size="10" fill="#2e7d32">TEXTBOOK</text>
</svg>